<svg width="28" height="32" viewBox="0 0 28 32" fill="none" xmlns="http://www.w3.org/2000/svg">
<g id="android-logo">
<path id="Path" fill-rule="evenodd" clip-rule="evenodd" d="M1.98621 10.4165H1.90438C0.855336 10.4165 0 11.2746 0 12.3209V20.6122C0 21.6627 0.855336 22.5179 1.90438 22.5179H1.9876C3.03665 22.5179 3.89198 21.6599 3.89198 20.6122V12.3208C3.89059 11.2746 3.03393 10.4165 1.98621 10.4165Z" fill="white"/>
<path id="Path_2" fill-rule="evenodd" clip-rule="evenodd" d="M4.80371 23.8126C4.80371 24.7757 5.59081 25.56 6.55391 25.56H8.4242V30.0386C8.4242 31.0903 9.28226 31.9457 10.3286 31.9457H10.4104C11.4608 31.9457 12.3175 31.089 12.3175 30.0386V25.56H14.9313V30.0386C14.9313 31.0903 15.792 31.9457 16.8384 31.9457H16.9189C17.9692 31.9457 18.8246 31.089 18.8246 30.0386V25.56H20.6962C21.6579 25.56 22.4451 24.7757 22.4451 23.8126V10.7207H4.80371V23.8126Z" fill="white"/>
<path id="Shape" fill-rule="evenodd" clip-rule="evenodd" d="M18.0174 2.78152L19.503 0.488395C19.5985 0.343762 19.5562 0.146007 19.4103 0.0518413C19.2657 -0.0436527 19.0679 -0.00406379 18.9737 0.144616L17.4336 2.51692C16.2782 2.04356 14.9877 1.77756 13.6248 1.77756C12.2607 1.77756 10.9729 2.04356 9.81475 2.51692L8.27736 0.144616C8.18326 -0.00406379 7.98405 -0.0436527 7.83809 0.0518413C7.69212 0.145944 7.64982 0.343762 7.74531 0.488395L9.23224 2.78152C6.55163 4.09522 4.74414 6.57118 4.74414 9.41133C4.74414 9.58594 4.75508 9.75783 4.77007 9.92833H22.4809C22.4959 9.75783 22.5055 9.58594 22.5055 9.41133C22.5055 6.57118 20.6966 4.09522 18.0174 2.78152ZM9.51872 6.88764C9.04808 6.88764 8.6661 6.50838 8.6661 6.03641C8.6661 5.56444 9.04808 5.18651 9.51872 5.18651C9.99208 5.18651 10.3713 5.56438 10.3713 6.03641C10.3713 6.50844 9.98936 6.88764 9.51872 6.88764ZM16.877 6.03641C16.877 6.50838 17.259 6.88764 17.7296 6.88764C18.2016 6.88764 18.5809 6.50838 18.5809 6.03641C18.5809 5.56438 18.2016 5.18651 17.7296 5.18651C17.259 5.18651 16.877 5.56444 16.877 6.03641Z" fill="white"/>
<path id="Path_3" fill-rule="evenodd" clip-rule="evenodd" d="M25.3436 10.417H25.2645C24.2155 10.417 23.3574 11.275 23.3574 12.3214V20.6127C23.3574 21.6632 24.2169 22.5184 25.2645 22.5184H25.345C26.3954 22.5184 27.2494 21.6604 27.2494 20.6127V12.3213C27.2494 11.275 26.3927 10.417 25.3436 10.417Z" fill="white"/>
</g>
</svg>
