<?xml version="1.0" encoding="UTF-8"?>
<svg width="27px" height="32px" viewBox="0 0 27 32" version="1.1" xmlns="http://www.w3.org/2000/svg" xmlns:xlink="http://www.w3.org/1999/xlink">
    <!-- Generator: Sketch 52.3 (67297) - http://www.bohemiancoding.com/sketch -->
    <title>apple</title>
    <desc>Created with Sketch.</desc>
    <g id="Page-1" stroke="none" stroke-width="1" fill="none" fill-rule="evenodd">
        <g id="main-copy" transform="translate(-1242.000000, -3716.000000)" fill="#FFFFFF" fill-rule="nonzero">
            <g id="Group-21" transform="translate(1182.000000, 3676.000000)">
                <g id="apple" transform="translate(60.000000, 40.000000)">
                    <path d="M21.79675,17.002875 C21.756375,12.9503125 25.10175,11.00675 25.2511875,10.9101875 C23.3715,8.1595625 20.443375,7.78275 19.3999375,7.7391875 C16.908,7.486875 14.5375625,9.2063125 13.272875,9.2063125 C12.011375,9.2063125 10.0598125,7.7765 7.993125,7.8140625 C5.277,7.8544375 2.7725625,9.393375 1.374,11.8259375 C-1.448,16.7228125 0.6513125,23.9771875 3.4018125,27.948625 C4.7458125,29.892625 6.3484375,32.076 8.452625,31.998 C10.4789375,31.917125 11.2451875,30.6868125 13.695,30.6868125 C16.14475,30.6868125 16.8334375,31.998 18.97775,31.95775 C21.15825,31.91725 22.5396875,29.9765625 23.8744375,28.026625 C25.4178125,25.771375 26.0533125,23.5879375 26.0908125,23.475875 C26.042375,23.45375 21.838875,21.8434375 21.79675,17.002875 Z M17.7675,5.1100625 C18.8843125,3.755125 19.638125,1.8753125 19.4325,0 C17.8238125,0.0655 15.873875,1.0715625 14.7196875,2.4234375 C13.6840625,3.6226875 12.7775,5.53675 13.0204375,7.3745625 C14.8163125,7.5146875 16.6495,6.4619375 17.7675,5.1100625 Z" id="Shape"></path>
                </g>
            </g>
        </g>
    </g>
</svg>