<?xml version="1.0" encoding="UTF-8"?>
<svg width="21px" height="21px" viewBox="0 0 21 21" version="1.1" xmlns="http://www.w3.org/2000/svg" xmlns:xlink="http://www.w3.org/1999/xlink">
    <!-- Generator: Sketch 52.3 (67297) - http://www.bohemiancoding.com/sketch -->
    <title>instagram</title>
    <desc>Created with Sketch.</desc>
    <g id="Page-1" stroke="none" stroke-width="1" fill="none" fill-rule="evenodd">
        <g id="main-copy" transform="translate(-126.000000, -3724.000000)" fill="#FFFFFF" fill-rule="nonzero">
            <g id="Group-19" transform="translate(34.000000, 3676.000000)">
                <g id="Group-19-Copy" transform="translate(0.000000, 36.000000)">
                    <g id="instagram" transform="translate(82.000000, 0.000000)">
                        <g id="Group-22" transform="translate(10.000000, 12.000000)">
                            <circle id="Oval" cx="10.5" cy="10.5" r="3.45512821"></circle>
                            <path d="M14.8180465,0.134615385 L6.18022596,0.134615385 C2.84689103,0.134615385 0.134615385,2.84775481 0.134615385,6.18195353 L0.134615385,14.819774 C0.134615385,18.153109 2.84775481,20.8653846 6.18195353,20.8653846 L14.819774,20.8653846 C18.153109,20.8653846 20.8653846,18.1522452 20.8653846,14.8180465 L20.8653846,6.18022596 C20.8653846,2.84689103 18.1522452,0.134615385 14.8180465,0.134615385 Z M10.5,15.6826923 C7.64174519,15.6826923 5.31730769,13.3582548 5.31730769,10.5 C5.31730769,7.64174519 7.64174519,5.31730769 10.5,5.31730769 C13.3582548,5.31730769 15.6826923,7.64174519 15.6826923,10.5 C15.6826923,13.3582548 13.3582548,15.6826923 10.5,15.6826923 Z M16.5464744,5.31730769 C16.0696667,5.31730769 15.6826923,4.93033333 15.6826923,4.45352564 C15.6826923,3.97671795 16.0696667,3.58974359 16.5464744,3.58974359 C17.0232821,3.58974359 17.4102564,3.97671795 17.4102564,4.45352564 C17.4102564,4.93033333 17.0232821,5.31730769 16.5464744,5.31730769 Z" id="Shape"></path>
                        </g>
                    </g>
                </g>
            </g>
        </g>
    </g>
</svg>