<?xml version="1.0" encoding="UTF-8"?>
<svg width="66px" height="40px" viewBox="0 0 66 40" version="1.1" xmlns="http://www.w3.org/2000/svg" xmlns:xlink="http://www.w3.org/1999/xlink">
    <!-- Generator: Sketch 52.3 (67297) - http://www.bohemiancoding.com/sketch -->
    <title>mastercard (1)</title>
    <desc>Created with Sketch.</desc>
    <g id="Page-1" stroke="none" stroke-width="1" fill="none" fill-rule="evenodd">
        <g id="main-copy" transform="translate(-60.000000, -3825.000000)">
            <g id="mastercard-(1)" transform="translate(60.000000, 3825.000000)">
                <path d="M66,20 C66,30.9473684 57.2,39.8947368 46.2,39.8947368 C35.3047619,39.8947368 26.4,30.9473684 26.4,20 C26.4,9.05263158 35.2,0.105263158 46.0952381,0.105263158 C57.2,0.105263158 66,9.05263158 66,20 Z" id="Path" fill="#FFB600"></path>
                <path d="M46.2,0.105263158 C57.0952381,0.105263158 66,9.05263158 66,20 C66,30.9473684 57.2,39.8947368 46.2,39.8947368 C35.3047619,39.8947368 26.4,30.9473684 26.4,20" id="Path" fill="#F7981D"></path>
                <path d="M46.2,0.105263158 C57.0952381,0.105263158 66,9.05263158 66,20 C66,30.9473684 57.2,39.8947368 46.2,39.8947368" id="Path" fill="#FF8500"></path>
                <path d="M19.5904762,0.105263158 C8.8,0.210526316 0,9.05263158 0,20 C0,30.9473684 8.8,39.8947368 19.8,39.8947368 C24.9333333,39.8947368 29.5428571,37.8947368 33.1047619,34.7368421 C33.8380952,34.1052632 34.4666667,33.3684211 35.0952381,32.6315789 L31.0095238,32.6315789 C30.4857143,32 29.9619048,31.2631579 29.5428571,30.6315789 L36.5619048,30.6315789 C36.9809524,30 37.4,29.2631579 37.7142857,28.5263158 L28.3904762,28.5263158 C28.0761905,27.8947368 27.7619048,27.1578947 27.552381,26.4210526 L38.447619,26.4210526 C39.0761905,24.4210526 39.4952381,22.3157895 39.4952381,20.1052632 C39.4952381,18.6315789 39.2857143,17.2631579 39.0761905,15.8947368 L26.9238095,15.8947368 C27.0285714,15.1578947 27.2380952,14.5263158 27.447619,13.7894737 L38.3428571,13.7894737 C38.1333333,13.0526316 37.8190476,12.3157895 37.5047619,11.6842105 L28.2857143,11.6842105 C28.6,10.9473684 29.0190476,10.3157895 29.4380952,9.57894737 L36.4571429,9.57894737 C36.0380952,8.84210526 35.5142857,8.10526316 34.8857143,7.47368421 L31.0095238,7.47368421 C31.6380952,6.73684211 32.2666667,6.10526316 33,5.47368421 C29.5428571,2.21052632 24.8285714,0.315789474 19.6952381,0.315789474 C19.6952381,0.105263158 19.6952381,0.105263158 19.5904762,0.105263158 Z" id="Path" fill="#FF5050"></path>
                <path d="M0,20 C0,30.9473684 8.8,39.8947368 19.8,39.8947368 C24.9333333,39.8947368 29.5428571,37.8947368 33.1047619,34.7368421 C33.8380952,34.1052632 34.4666667,33.3684211 35.0952381,32.6315789 L31.0095238,32.6315789 C30.4857143,32 29.9619048,31.2631579 29.5428571,30.6315789 L36.5619048,30.6315789 C36.9809524,30 37.4,29.2631579 37.7142857,28.5263158 L28.3904762,28.5263158 C28.0761905,27.8947368 27.7619048,27.1578947 27.552381,26.4210526 L38.447619,26.4210526 C39.0761905,24.4210526 39.4952381,22.3157895 39.4952381,20.1052632 C39.4952381,18.6315789 39.2857143,17.2631579 39.0761905,15.8947368 L26.9238095,15.8947368 C27.0285714,15.1578947 27.2380952,14.5263158 27.447619,13.7894737 L38.3428571,13.7894737 C38.1333333,13.0526316 37.8190476,12.3157895 37.5047619,11.6842105 L28.2857143,11.6842105 C28.6,10.9473684 29.0190476,10.3157895 29.4380952,9.57894737 L36.4571429,9.57894737 C36.0380952,8.84210526 35.5142857,8.10526316 34.8857143,7.47368421 L31.0095238,7.47368421 C31.6380952,6.73684211 32.2666667,6.10526316 33,5.47368421 C29.5428571,2.21052632 24.8285714,0.315789474 19.6952381,0.315789474 L19.5904762,0.315789474" id="Path" fill="#E52836"></path>
                <path d="M19.8,39.8947368 C24.9333333,39.8947368 29.5428571,37.8947368 33.1047619,34.7368421 C33.8380952,34.1052632 34.4666667,33.3684211 35.0952381,32.6315789 L31.0095238,32.6315789 C30.4857143,32 29.9619048,31.2631579 29.5428571,30.6315789 L36.5619048,30.6315789 C36.9809524,30 37.4,29.2631579 37.7142857,28.5263158 L28.3904762,28.5263158 C28.0761905,27.8947368 27.7619048,27.1578947 27.552381,26.4210526 L38.447619,26.4210526 C39.0761905,24.4210526 39.4952381,22.3157895 39.4952381,20.1052632 C39.4952381,18.6315789 39.2857143,17.2631579 39.0761905,15.8947368 L26.9238095,15.8947368 C27.0285714,15.1578947 27.2380952,14.5263158 27.447619,13.7894737 L38.3428571,13.7894737 C38.1333333,13.0526316 37.8190476,12.3157895 37.5047619,11.6842105 L28.2857143,11.6842105 C28.6,10.9473684 29.0190476,10.3157895 29.4380952,9.57894737 L36.4571429,9.57894737 C36.0380952,8.84210526 35.5142857,8.10526316 34.8857143,7.47368421 L31.0095238,7.47368421 C31.6380952,6.73684211 32.2666667,6.10526316 33,5.47368421 C29.5428571,2.21052632 24.8285714,0.315789474 19.6952381,0.315789474 L19.5904762,0.315789474" id="Path" fill="#CB2026"></path>
                <g id="Group" transform="translate(1.833333, 14.736842)" fill="#FFFFFF">
                    <path d="M24.9857143,10.3157895 L25.3,8.52631579 C25.1952381,8.52631579 24.9857143,8.63157895 24.7761905,8.63157895 C24.0428571,8.63157895 23.9380952,8.21052632 24.0428571,8 L24.6714286,4.31578947 L25.8238095,4.31578947 L26.1380952,2.31578947 L25.0904762,2.31578947 L25.3,1.05263158 L23.2047619,1.05263158 C23.2047619,1.05263158 21.947619,8 21.947619,8.84210526 C21.947619,10.1052632 22.6809524,10.6315789 23.6238095,10.6315789 C24.252381,10.6315789 24.7761905,10.4210526 24.9857143,10.3157895 Z" id="Path"></path>
                    <path d="M25.7190476,6.94736842 C25.7190476,9.89473684 27.7095238,10.6315789 29.3857143,10.6315789 C30.9571429,10.6315789 31.5857143,10.3157895 31.5857143,10.3157895 L32.0047619,8.31578947 C32.0047619,8.31578947 30.852381,8.84210526 29.8047619,8.84210526 C27.5,8.84210526 27.9190476,7.15789474 27.9190476,7.15789474 L32.2142857,7.15789474 C32.2142857,7.15789474 32.5285714,5.78947368 32.5285714,5.26315789 C32.5285714,3.89473684 31.7952381,2.21052632 29.4904762,2.21052632 C27.2904762,2 25.7190476,4.31578947 25.7190476,6.94736842 Z M29.3857143,3.89473684 C30.5380952,3.89473684 30.3285714,5.26315789 30.3285714,5.36842105 L28.0238095,5.36842105 C28.0238095,5.26315789 28.2333333,3.89473684 29.3857143,3.89473684 Z" id="Shape" fill-rule="nonzero"></path>
                    <path d="M42.6904762,10.3157895 L43.1095238,8 C43.1095238,8 42.0619048,8.52631579 41.3285714,8.52631579 C39.8619048,8.52631579 39.2333333,7.36842105 39.2333333,6.10526316 C39.2333333,3.57894737 40.4904762,2.21052632 41.9571429,2.21052632 C43.0047619,2.21052632 43.8428571,2.84210526 43.8428571,2.84210526 L44.1571429,0.631578947 C44.1571429,0.631578947 42.9,0.105263158 41.747619,0.105263158 C39.3380952,0.105263158 36.9285714,2.21052632 36.9285714,6.21052632 C36.9285714,8.84210526 38.1857143,10.6315789 40.7,10.6315789 C41.5380952,10.6315789 42.6904762,10.3157895 42.6904762,10.3157895 Z" id="Path"></path>
                    <path d="M13.4619048,2 C11.9952381,2 10.947619,2.42105263 10.947619,2.42105263 L10.6333333,4.21052632 C10.6333333,4.21052632 11.5761905,3.78947368 12.9380952,3.78947368 C13.6714286,3.78947368 14.3,3.89473684 14.3,4.52631579 C14.3,4.94736842 14.1952381,5.05263158 14.1952381,5.05263158 C14.1952381,5.05263158 13.5666667,5.05263158 13.252381,5.05263158 C11.4714286,5.05263158 9.48095238,5.78947368 9.48095238,8.21052632 C9.48095238,10.1052632 10.7380952,10.5263158 11.4714286,10.5263158 C12.9380952,10.5263158 13.5666667,9.57894737 13.6714286,9.57894737 L13.5666667,10.4210526 L15.452381,10.4210526 L16.2904762,4.63157895 C16.2904762,2.10526316 14.1952381,2 13.4619048,2 Z M13.8809524,6.73684211 C13.8809524,7.05263158 13.6714286,8.73684211 12.4142857,8.73684211 C11.7857143,8.73684211 11.5761905,8.21052632 11.5761905,7.89473684 C11.5761905,7.36842105 11.8904762,6.63157895 13.4619048,6.63157895 C13.7761905,6.73684211 13.8809524,6.73684211 13.8809524,6.73684211 Z" id="Shape" fill-rule="nonzero"></path>
                    <path d="M18.2809524,10.5263158 C18.8047619,10.5263158 21.4238095,10.6315789 21.4238095,7.78947368 C21.4238095,5.15789474 18.9095238,5.68421053 18.9095238,4.63157895 C18.9095238,4.10526316 19.3285714,3.89473684 20.0619048,3.89473684 C20.3761905,3.89473684 21.5285714,4 21.5285714,4 L21.8428571,2.10526316 C21.8428571,2.10526316 21.1095238,1.89473684 19.852381,1.89473684 C18.2809524,1.89473684 16.7095238,2.52631579 16.7095238,4.63157895 C16.7095238,7.05263158 19.3285714,6.84210526 19.3285714,7.78947368 C19.3285714,8.42105263 18.5952381,8.52631579 18.0714286,8.52631579 C17.1285714,8.52631579 16.1857143,8.21052632 16.1857143,8.21052632 L15.8714286,10.1052632 C15.9761905,10.3157895 16.5,10.5263158 18.2809524,10.5263158 Z" id="Path"></path>
                    <path d="M60.0809524,0.315789474 L59.6619048,3.15789474 C59.6619048,3.15789474 58.8238095,2.10526316 57.6714286,2.10526316 C55.7857143,2.10526316 54.1095238,4.42105263 54.1095238,7.15789474 C54.1095238,8.84210526 54.947619,10.6315789 56.7285714,10.6315789 C57.9857143,10.6315789 58.7190476,9.78947368 58.7190476,9.78947368 L58.6142857,10.5263158 L60.7095238,10.5263158 L62.2809524,0.421052632 L60.0809524,0.315789474 Z M59.1380952,5.89473684 C59.1380952,7.05263158 58.6142857,8.52631579 57.4619048,8.52631579 C56.7285714,8.52631579 56.3095238,7.89473684 56.3095238,6.84210526 C56.3095238,5.15789474 57.0428571,4.10526316 57.9857143,4.10526316 C58.7190476,4.10526316 59.1380952,4.63157895 59.1380952,5.89473684 Z" id="Shape" fill-rule="nonzero"></path>
                    <polygon id="Path" points="2.04285714 10.4210526 3.3 2.84210526 3.50952381 10.4210526 4.97619048 10.4210526 7.7 2.84210526 6.54761905 10.4210526 8.74761905 10.4210526 10.4238095 0.315789474 6.96666667 0.315789474 4.87142857 6.52631579 4.76666667 0.315789474 1.72857143 0.315789474 0.0523809524 10.4210526"></polygon>
                    <path d="M34.5190476,10.4210526 C35.147619,6.94736842 35.252381,4.10526316 36.7190476,4.63157895 C36.9285714,3.26315789 37.2428571,2.73684211 37.452381,2.21052632 C37.452381,2.21052632 37.347619,2.21052632 37.0333333,2.21052632 C36.0904762,2.21052632 35.3571429,3.47368421 35.3571429,3.47368421 L35.5666667,2.31578947 L33.5761905,2.31578947 L32.2142857,10.5263158 L34.5190476,10.5263158 L34.5190476,10.4210526 Z" id="Path"></path>
                    <path d="M47.5095238,2 C46.0428571,2 44.9952381,2.42105263 44.9952381,2.42105263 L44.6809524,4.21052632 C44.6809524,4.21052632 45.6238095,3.78947368 46.9857143,3.78947368 C47.7190476,3.78947368 48.347619,3.89473684 48.347619,4.52631579 C48.347619,4.94736842 48.2428571,5.05263158 48.2428571,5.05263158 C48.2428571,5.05263158 47.6142857,5.05263158 47.3,5.05263158 C45.5190476,5.05263158 43.5285714,5.78947368 43.5285714,8.21052632 C43.5285714,10.1052632 44.7857143,10.5263158 45.5190476,10.5263158 C46.9857143,10.5263158 47.6142857,9.57894737 47.7190476,9.57894737 L47.6142857,10.4210526 L49.5,10.4210526 L50.3380952,4.63157895 C50.4428571,2.10526316 48.2428571,2 47.5095238,2 Z M48.0333333,6.73684211 C48.0333333,7.05263158 47.8238095,8.73684211 46.5666667,8.73684211 C45.9380952,8.73684211 45.7285714,8.21052632 45.7285714,7.89473684 C45.7285714,7.36842105 46.0428571,6.63157895 47.6142857,6.63157895 C47.9285714,6.73684211 47.9285714,6.73684211 48.0333333,6.73684211 Z" id="Shape" fill-rule="nonzero"></path>
                    <path d="M52.1190476,10.4210526 C52.747619,6.94736842 52.852381,4.10526316 54.3190476,4.63157895 C54.5285714,3.26315789 54.8428571,2.73684211 55.052381,2.21052632 C55.052381,2.21052632 54.947619,2.21052632 54.6333333,2.21052632 C53.6904762,2.21052632 52.9571429,3.47368421 52.9571429,3.47368421 L53.1666667,2.31578947 L51.1761905,2.31578947 L49.8142857,10.5263158 L52.1190476,10.5263158 L52.1190476,10.4210526 Z" id="Path"></path>
                </g>
                <g id="Group" transform="translate(1.833333, 14.736842)" fill="#DCE5E5">
                    <path d="M21.7380952,8.84210526 C21.7380952,10.1052632 22.4714286,10.6315789 23.4142857,10.6315789 C24.147619,10.6315789 24.7761905,10.4210526 24.9857143,10.3157895 L25.3,8.52631579 C25.1952381,8.52631579 24.9857143,8.63157895 24.7761905,8.63157895 C24.0428571,8.63157895 23.9380952,8.21052632 24.0428571,8 L24.6714286,4.31578947 L25.8238095,4.31578947 L26.1380952,2.31578947 L25.0904762,2.31578947 L25.3,1.05263158" id="Path"></path>
                    <path d="M26.7666667,6.94736842 C26.7666667,9.89473684 27.7095238,10.6315789 29.3857143,10.6315789 C30.9571429,10.6315789 31.5857143,10.3157895 31.5857143,10.3157895 L32.0047619,8.31578947 C32.0047619,8.31578947 30.852381,8.84210526 29.8047619,8.84210526 C27.5,8.84210526 27.9190476,7.15789474 27.9190476,7.15789474 L32.2142857,7.15789474 C32.2142857,7.15789474 32.5285714,5.78947368 32.5285714,5.26315789 C32.5285714,3.89473684 31.7952381,2.21052632 29.4904762,2.21052632 C27.2904762,2 26.7666667,4.31578947 26.7666667,6.94736842 Z M29.3857143,3.89473684 C30.5380952,3.89473684 30.747619,5.26315789 30.747619,5.36842105 L28.0238095,5.36842105 C28.0238095,5.26315789 28.2333333,3.89473684 29.3857143,3.89473684 Z" id="Shape" fill-rule="nonzero"></path>
                    <path d="M42.6904762,10.3157895 L43.1095238,8 C43.1095238,8 42.0619048,8.52631579 41.3285714,8.52631579 C39.8619048,8.52631579 39.2333333,7.36842105 39.2333333,6.10526316 C39.2333333,3.57894737 40.4904762,2.21052632 41.9571429,2.21052632 C43.0047619,2.21052632 43.8428571,2.84210526 43.8428571,2.84210526 L44.1571429,0.631578947 C44.1571429,0.631578947 42.9,0.105263158 41.747619,0.105263158 C39.3380952,0.105263158 37.9761905,2.21052632 37.9761905,6.21052632 C37.9761905,8.84210526 38.1857143,10.6315789 40.7,10.6315789 C41.5380952,10.6315789 42.6904762,10.3157895 42.6904762,10.3157895 Z" id="Path"></path>
                    <path d="M10.6333333,4.31578947 C10.6333333,4.31578947 11.5761905,3.89473684 12.9380952,3.89473684 C13.6714286,3.89473684 14.3,4 14.3,4.63157895 C14.3,5.05263158 14.1952381,5.15789474 14.1952381,5.15789474 C14.1952381,5.15789474 13.5666667,5.15789474 13.252381,5.15789474 C11.4714286,5.15789474 9.48095238,5.89473684 9.48095238,8.31578947 C9.48095238,10.2105263 10.7380952,10.6315789 11.4714286,10.6315789 C12.9380952,10.6315789 13.5666667,9.68421053 13.6714286,9.68421053 L13.5666667,10.5263158 L15.452381,10.5263158 L16.2904762,4.73684211 C16.2904762,2.31578947 14.1952381,2.21052632 13.3571429,2.21052632 L10.6333333,4.31578947 Z M14.9285714,6.73684211 C14.9285714,7.05263158 13.6714286,8.73684211 12.4142857,8.73684211 C11.7857143,8.73684211 11.5761905,8.21052632 11.5761905,7.89473684 C11.5761905,7.36842105 11.8904762,6.63157895 13.4619048,6.63157895 C13.7761905,6.73684211 14.9285714,6.73684211 14.9285714,6.73684211 Z" id="Shape" fill-rule="nonzero"></path>
                    <path d="M15.9761905,10.3157895 C15.9761905,10.3157895 16.6047619,10.5263158 18.3857143,10.5263158 C18.9095238,10.5263158 21.5285714,10.6315789 21.5285714,7.78947368 C21.5285714,5.15789474 19.0142857,5.68421053 19.0142857,4.63157895 C19.0142857,4.10526316 19.4333333,3.89473684 20.1666667,3.89473684 C20.4809524,3.89473684 21.6333333,4 21.6333333,4 L21.947619,2.10526316 C21.947619,2.10526316 21.2142857,1.89473684 19.9571429,1.89473684 C18.3857143,1.89473684 17.8619048,2.52631579 17.8619048,4.63157895 C17.8619048,7.05263158 19.4333333,6.84210526 19.4333333,7.78947368 C19.4333333,8.42105263 18.7,8.52631579 18.1761905,8.52631579" id="Path"></path>
                    <path d="M59.6619048,3.15789474 C59.6619048,3.15789474 58.8238095,2.10526316 57.6714286,2.10526316 C55.7857143,2.10526316 55.1571429,4.42105263 55.1571429,7.15789474 C55.1571429,8.84210526 54.947619,10.6315789 56.7285714,10.6315789 C57.9857143,10.6315789 58.7190476,9.78947368 58.7190476,9.78947368 L58.6142857,10.5263158 L60.7095238,10.5263158 L62.2809524,0.421052632 L59.6619048,3.15789474 Z M59.5571429,5.89473684 C59.5571429,7.05263158 58.6142857,8.52631579 57.4619048,8.52631579 C56.7285714,8.52631579 56.3095238,7.89473684 56.3095238,6.84210526 C56.3095238,5.15789474 57.0428571,4.10526316 57.9857143,4.10526316 C58.7190476,4.10526316 59.5571429,4.63157895 59.5571429,5.89473684 Z" id="Shape" fill-rule="nonzero"></path>
                    <polygon id="Path" points="2.04285714 10.4210526 3.3 2.84210526 3.50952381 10.4210526 4.97619048 10.4210526 7.7 2.84210526 6.54761905 10.4210526 8.74761905 10.4210526 10.4238095 0.315789474 7.8047619 0.315789474 4.87142857 6.52631579 4.76666667 0.315789474 3.61428571 0.315789474 0.0523809524 10.4210526"></polygon>
                    <path d="M32.3190476,10.4210526 L34.5190476,10.4210526 C35.147619,6.94736842 35.252381,4.10526316 36.7190476,4.63157895 C36.9285714,3.26315789 37.2428571,2.73684211 37.452381,2.21052632 C37.452381,2.21052632 37.347619,2.21052632 37.0333333,2.21052632 C36.0904762,2.21052632 35.3571429,3.47368421 35.3571429,3.47368421 L35.5666667,2.31578947" id="Path"></path>
                    <path d="M44.6809524,4.31578947 C44.6809524,4.31578947 45.6238095,3.89473684 46.9857143,3.89473684 C47.7190476,3.89473684 48.347619,4 48.347619,4.63157895 C48.347619,5.05263158 48.2428571,5.15789474 48.2428571,5.15789474 C48.2428571,5.15789474 47.6142857,5.15789474 47.3,5.15789474 C45.5190476,5.15789474 43.5285714,5.89473684 43.5285714,8.31578947 C43.5285714,10.2105263 44.7857143,10.6315789 45.5190476,10.6315789 C46.9857143,10.6315789 47.6142857,9.68421053 47.7190476,9.68421053 L47.6142857,10.5263158 L49.5,10.5263158 L50.3380952,4.73684211 C50.3380952,2.31578947 48.2428571,2.21052632 47.4047619,2.21052632 L44.6809524,4.31578947 Z M48.9761905,6.73684211 C48.9761905,7.05263158 47.7190476,8.73684211 46.4619048,8.73684211 C45.8333333,8.73684211 45.6238095,8.21052632 45.6238095,7.89473684 C45.6238095,7.36842105 45.9380952,6.63157895 47.5095238,6.63157895 C47.9285714,6.73684211 48.9761905,6.73684211 48.9761905,6.73684211 Z" id="Shape" fill-rule="nonzero"></path>
                    <path d="M49.9190476,10.4210526 L52.1190476,10.4210526 C52.747619,6.94736842 52.852381,4.10526316 54.3190476,4.63157895 C54.5285714,3.26315789 54.8428571,2.73684211 55.052381,2.21052632 C55.052381,2.21052632 54.947619,2.21052632 54.6333333,2.21052632 C53.6904762,2.21052632 52.9571429,3.47368421 52.9571429,3.47368421 L53.1666667,2.31578947" id="Path"></path>
                </g>
            </g>
        </g>
    </g>
</svg>