<svg width="28" height="28" viewBox="0 0 24 25" fill="none" xmlns="http://www.w3.org/2000/svg">
<g clip-path="url(#clip0_2934_19208)">
<path d="M0 12.5C0 5.87258 5.37258 0.5 12 0.5C18.6274 0.5 24 5.87258 24 12.5C24 19.1274 18.6274 24.5 12 24.5C5.37258 24.5 0 19.1274 0 12.5Z" fill="#F93939"/>
<path fill-rule="evenodd" clip-rule="evenodd" d="M-3.19922 18.1001H30.4008V24.5001H-3.19922V18.1001Z" fill="#00B731"/>
<path fill-rule="evenodd" clip-rule="evenodd" d="M-3.19922 0.5H30.4008V6.9H-3.19922V0.5Z" fill="#03BCDB"/>
<path fill-rule="evenodd" clip-rule="evenodd" d="M0 8.5001H33.6V16.5001H0V8.5001ZM8 6.7641C7.7504 6.8521 7.48 6.9001 7.2 6.9001C5.8752 6.9001 4.8 5.8249 4.8 4.5001C4.8 3.1753 5.8752 2.1001 7.2 2.1001C7.48 2.1001 7.7504 2.1481 8 2.2361C7.0672 2.5657 6.4 3.4553 6.4 4.5001C6.4 5.5449 7.0672 6.4361 8 6.7641Z" fill="white"/>
<path opacity="0.5" fill-rule="evenodd" clip-rule="evenodd" d="M9.59961 3.7001H11.1996V5.3001H9.59961V3.7001ZM11.1996 2.1001H12.7996V3.7001H11.1996V2.1001ZM12.7996 3.7001H14.3996V5.3001H12.7996V3.7001ZM14.3996 2.1001H15.9996V3.7001H14.3996V2.1001ZM15.9996 3.7001H17.5996V5.3001H15.9996V3.7001ZM14.3996 5.3001H15.9996V6.9001H14.3996V5.3001ZM11.1996 5.3001H12.7996V6.9001H11.1996V5.3001Z" fill="#1A47B8"/>
<rect y="8.5" width="8" height="8" fill="white"/>
</g>
<defs>
<clipPath id="clip0_2934_19208">
<path d="M0 12.5C0 5.87258 5.37258 0.5 12 0.5C18.6274 0.5 24 5.87258 24 12.5C24 19.1274 18.6274 24.5 12 24.5C5.37258 24.5 0 19.1274 0 12.5Z" fill="white"/>
</clipPath>
</defs>
</svg>
