<svg width="23" height="20" viewBox="0 0 23 20" fill="none" xmlns="http://www.w3.org/2000/svg">
<path d="M8.5207 18.349C7.84583 18.349 7.9605 18.0942 7.72775 17.4516L5.74316 10.9202L21.0196 1.85742" fill="#071A2E"/>
<path d="M8.51953 18.3489C9.04032 18.3489 9.27042 18.1107 9.56111 17.8281L12.3386 15.1273L8.87401 13.0381" fill="white"/>
<path d="M8.87444 13.0388L17.2695 19.2412C18.2275 19.7698 18.9189 19.4961 19.1576 18.3518L22.5748 2.2485C22.9247 0.845811 22.0401 0.209617 21.1236 0.625692L1.05769 8.36303C-0.311998 8.91241 -0.304013 9.67656 0.808025 10.0171L5.9574 11.6243L17.8787 4.10322C18.4415 3.76194 18.958 3.94542 18.5341 4.32167" fill="white"/>
</svg>
