<svg width="20" height="18" viewBox="0 0 20 18" fill="none" xmlns="http://www.w3.org/2000/svg">
<path fill-rule="evenodd" clip-rule="evenodd" d="M17.4969 3.18764C18.3374 2.65723 18.9824 1.81619 19.285 0.814315C18.4981 1.30666 17.6285 1.66272 16.7007 1.85548C15.9603 1.02058 14.9021 0.5 13.7309 0.5C11.4842 0.5 9.66347 2.42149 9.66347 4.79113C9.66347 5.12755 9.69723 5.45537 9.76708 5.76845C6.38643 5.5892 3.38879 3.88257 1.38066 1.28456C1.03026 1.92055 0.830027 2.65723 0.830027 3.44302C0.830027 4.9311 1.5483 6.24484 2.64025 7.01589C1.97321 6.99379 1.34574 6.79857 0.796267 6.47934V6.53214C0.796267 8.61202 2.19788 10.3469 4.06166 10.7398C3.7194 10.8405 3.36085 10.8908 2.98833 10.8908C2.7264 10.8908 2.47029 10.865 2.22349 10.8147C2.74037 12.5189 4.24327 13.7614 6.02439 13.7945C4.63092 14.9462 2.87657 15.6313 0.970887 15.6313C0.642601 15.6313 0.317808 15.6129 0 15.5724C1.80091 16.7891 3.93943 17.5 6.23742 17.5C13.7228 17.5 17.8136 10.9608 17.8136 5.28961C17.8136 5.10299 17.8112 4.91759 17.8031 4.73465C18.5982 4.12935 19.2897 3.37303 19.8333 2.51235C19.1034 2.85368 18.3188 3.0845 17.4969 3.18764Z" fill="white"/>
</svg>
