<?xml version="1.0" encoding="UTF-8"?>
<svg width="86px" height="27px" viewBox="0 0 86 27" version="1.1" xmlns="http://www.w3.org/2000/svg" xmlns:xlink="http://www.w3.org/1999/xlink">
    <!-- Generator: Sketch 52.3 (67297) - http://www.bohemiancoding.com/sketch -->
    <title>visa (1)</title>
    <desc>Created with Sketch.</desc>
    <g id="Page-1" stroke="none" stroke-width="1" fill="none" fill-rule="evenodd">
        <g id="main-copy" transform="translate(-159.000000, -3831.000000)">
            <g id="visa-(1)" transform="translate(159.000000, 3831.000000)">
                <path d="M35.124226,0.0675 L30.8115616,26.8098261 L37.7048151,26.8098261 L42.0148288,0.0675 C42.0148288,0.0675 35.124226,0.0675 35.124226,0.0675 Z M55.9167877,10.9608261 C53.5079041,9.77546739 52.0311781,8.97544565 52.0311781,7.76308696 C52.0606301,6.66078261 53.2799452,5.53147826 56.0027877,5.53147826 C58.2423219,5.47542391 59.8883973,5.99986957 61.1371644,6.52167391 L61.762726,6.7998913 L62.6998904,1.20472826 C61.3383219,0.680282609 59.1794863,0.102423913 56.5128973,0.102423913 C49.7056438,0.102423913 44.9123219,3.62915217 44.8825753,8.67316304 C44.8263219,12.3953478 48.3143288,14.4608478 50.9246644,15.699913 C53.5912534,16.9709674 54.4989658,17.7950543 54.4989658,18.9243587 C54.4695137,20.6582283 52.3427808,21.45825 50.3583014,21.45825 C47.6086575,21.45825 46.131637,21.0462065 43.8894521,20.0800761 L42.9817397,19.6680326 L42.017774,25.4827174 C43.6370479,26.1999783 46.6149452,26.83125 49.7059384,26.8635326 C56.9402466,26.8635326 61.6475685,23.3902174 61.7067671,18.0145761 C61.7303288,15.0657065 59.8910479,12.8070978 55.9167877,10.9608261 Z M80.3720068,0.15026087 L75.0388288,0.15026087 C73.3954041,0.15026087 72.146637,0.621293478 71.4350753,2.30175 L61.195774,26.8098261 L68.4300822,26.8098261 L70.4225137,21.5037391 L78.5162329,21.5037391 L79.55,26.83125 L85.9304932,26.83125 L80.3720068,0.15026087 Z M72.4287877,16.1489505 C72.5683904,16.1624348 75.2055274,7.48721739 75.2055274,7.48721739 L77.3054589,16.1489505 C77.3054589,16.1489505 73.7903562,16.1489348 72.4287877,16.1489505 Z M25.0516233,0.0675 L18.2979726,18.2364457 L17.5622603,14.6533696 C16.3134932,10.5191413 12.3984315,6.02657609 8.02921918,3.79496739 L14.2135616,26.7831196 L21.5070685,26.7831196 L32.3451301,0.0704347826 L25.0516233,0.0704347826 L25.0516233,0.0675 Z" id="Shape" fill="#2394BC" fill-rule="nonzero"></path>
                <path d="M15.2903288,3.51645652 C14.7640205,1.47736957 13.0855479,0.102130435 10.8059589,0.0727826087 L0.110150685,0.0727826087 L0,0.567586957 C8.3434726,2.61723913 15.3465822,8.92408696 17.6185137,14.8564565 L15.2903288,3.51645652 Z" id="Path" fill="#EFC75E"></path>
            </g>
        </g>
    </g>
</svg>