<svg width="27" height="16" viewBox="0 0 27 16" fill="none" xmlns="http://www.w3.org/2000/svg">
<path fill-rule="evenodd" clip-rule="evenodd" d="M14.8241 15.5568C14.8241 15.5568 15.3114 15.5037 15.561 15.2405C15.7895 14.9994 15.7815 14.5444 15.7815 14.5444C15.7815 14.5444 15.7512 12.4198 16.7561 12.1061C17.7465 11.7976 19.0183 14.1607 20.3679 15.0694C21.3874 15.7564 22.1612 15.6061 22.1612 15.6061L25.7677 15.5568C25.7677 15.5568 27.6535 15.4427 26.7594 13.987C26.6855 13.8678 26.2378 12.9098 24.0787 10.9421C21.8165 8.88232 22.1203 9.21546 24.8433 5.65202C26.5019 3.48207 27.1649 2.15728 26.9575 1.59081C26.7608 1.04897 25.5406 1.19286 25.5406 1.19286L21.4811 1.21749C21.4811 1.21749 21.18 1.1773 20.9569 1.30823C20.739 1.43656 20.5977 1.73599 20.5977 1.73599C20.5977 1.73599 19.9559 3.41466 19.0988 4.84315C17.2909 7.85567 16.5686 8.01512 16.2728 7.82845C15.5848 7.39161 15.7564 6.0759 15.7564 5.14129C15.7564 2.2208 16.2081 1.0036 14.8783 0.68861C14.4372 0.583612 14.1123 0.51491 12.9832 0.503243C11.5346 0.488984 10.3091 0.508428 9.61447 0.841569C9.15227 1.06323 8.79571 1.55841 9.01361 1.58692C9.28168 1.62192 9.88915 1.74766 10.2114 2.17802C10.6273 2.73412 10.6128 3.98113 10.6128 3.98113C10.6128 3.98113 10.8518 7.41883 10.0542 7.8453C9.5075 8.13826 8.75742 7.54068 7.145 4.80685C6.31964 3.40688 5.69633 1.85914 5.69633 1.85914C5.69633 1.85914 5.57616 1.57007 5.36091 1.41452C5.10076 1.22656 4.7376 1.16823 4.7376 1.16823L0.880211 1.19286C0.880211 1.19286 0.300481 1.20841 0.0878686 1.456C-0.100973 1.67507 0.0733423 2.13006 0.0733423 2.13006C0.0733423 2.13006 3.09349 9.06639 6.51377 12.5624C9.65012 15.7668 13.2104 15.5568 13.2104 15.5568H14.8241Z" fill="white"/>
</svg>
